<?xml version="1.0" encoding="UTF-8" standalone="no"?>
<svg
   xmlns:dc="http://purl.org/dc/elements/1.1/"
   xmlns:cc="http://creativecommons.org/ns#"
   xmlns:rdf="http://www.w3.org/1999/02/22-rdf-syntax-ns#"
   xmlns:svg="http://www.w3.org/2000/svg"
   xmlns="http://www.w3.org/2000/svg"
   xmlns:sodipodi="http://sodipodi.sourceforge.net/DTD/sodipodi-0.dtd"
   xmlns:inkscape="http://www.inkscape.org/namespaces/inkscape"
   id="svg3390"
   version="1.1"
   inkscape:version="0.91 r13725"
   width="358.75"
   height="141.25"
   viewBox="0 0 358.75 141.25"
   sodipodi:docname="logo.svg">
  <metadata
     id="metadata3396">
    <rdf:RDF>
      <cc:Work
         rdf:about="">
        <dc:format>image/svg+xml</dc:format>
        <dc:type
           rdf:resource="http://purl.org/dc/dcmitype/StillImage" />
        <dc:title></dc:title>
      </cc:Work>
    </rdf:RDF>
  </metadata>
  <defs
     id="defs3394" />
  <sodipodi:namedview
     pagecolor="#ffffff"
     bordercolor="#666666"
     borderopacity="1"
     objecttolerance="10"
     gridtolerance="10"
     guidetolerance="10"
     inkscape:pageopacity="0"
     inkscape:pageshadow="2"
     inkscape:window-width="1114"
     inkscape:window-height="624"
     id="namedview3392"
     showgrid="false"
     inkscape:zoom="1.6539126"
     inkscape:cx="168.75333"
     inkscape:cy="135.20315"
     inkscape:window-x="0"
     inkscape:window-y="0"
     inkscape:window-maximized="0"
     inkscape:current-layer="svg3390" />
  <path
     style="fill:#ffffff;fill-opacity:0.95294118"
     d="m 111.38086,38.666016 c -2.41352,-0.06359 -4.33679,2.388329 -3.66797,5.732422 0.40443,2.02215 -0.0458,5.456245 -1.00977,7.697265 -0.95726,2.22542 -2.38553,8.828124 -3.17382,14.671875 -0.87358,6.47595 -2.64795,12.980571 -4.54492,16.660152 -2.74985,5.3339 -2.94533,6.54945 -1.66602,10.42579 1.73649,5.26164 0.84755,10.61495 -2.55859,15.39843 -6.21029,8.72153 -0.35037,16.71951 6.92187,9.44727 2.2141,-2.2141 3.06836,-4.43235 3.06836,-7.96875 0,-9.01699 1.24005,-11.90524 6.93945,-16.15039 7.37821,-5.49559 11.64921,-5.37518 16.78711,0.47656 2.19247,2.4971 5.84208,8.61067 8.10938,13.58594 2.26732,4.97528 4.74989,9.43374 5.51758,9.9082 1.899,1.17364 1.75377,-0.88814 -0.41016,-5.80469 -2.9179,-6.62958 -8.19455,-20.69316 -8.18555,-21.81836 0.004,-0.57025 1.80291,-2.05883 3.99805,-3.30859 3.17914,-1.80999 3.62268,-2.50509 2.17969,-3.41797 -0.99636,-0.63033 -3.31504,-1.15551 -5.15235,-1.16601 -3.61357,-0.0207 -4.59444,-1.939031 -7.28515,-14.248051 -1.61933,-7.407871 -10.62981,-27.060936 -13.36914,-29.160156 -0.83585,-0.640535 -1.69354,-0.93974 -2.49805,-0.960937 z m 1.64648,17.414062 c 1.30478,0.228126 2.88004,4.533148 5.24219,13.1875 1.40738,5.15625 2.93814,10.35938 3.40235,11.5625 1.05637,2.737892 -1.84531,2.743352 -8.48438,0.01953 -5.32168,-2.18334 -5.61066,-3.564645 -3.33789,-16.041015 1.08534,-5.95796 2.02646,-8.929803 3.17773,-8.728516 z"
     id="path4231"
     inkscape:connector-curvature="0" />
  <path
     style="fill:#21b7d2;fill-opacity:1"
     d="m 76.61673,99.09232 c 4.04819,3.5544 4.48333,4.52833 4.13729,9.26075 l -0.38671,5.28861 -6.90038,-6.875 C 63.12942,96.46719 50.85976,70.808945 47.92727,53.35827 46.99993,47.83985 42.45838,39.89166 40.23253,39.89166 c -0.71072,0 -6.87581,6.46529 -13.70021,14.36732 L 14.12433,68.626305 13.73988,63.319854 C 13.36786,58.18502 13.76608,57.54857 26.05427,43.64003 33.03864,35.73468 39.21769,29.26666 39.7855,29.26666 c 1.94697,0 6.1482,6.50398 6.94509,10.75181 0.43833,2.3365 1.27338,4.24819 1.85566,4.24819 0.58227,0 5.1603,-6.18295 10.17338,-13.73989 8.26335,-12.45652 9.22259,-13.47813 10.26978,-10.9375 0.6353,1.54132 6.1569,12.20299 12.27021,23.69262 8.686,16.324794 11.02878,21.788405 10.71993,25.000005 -0.35168,3.65697 -1.68449,1.65307 -12.09718,-18.188275 -6.43607,-12.26393 -12.11586,-21.82643 -12.62174,-21.25 -0.50589,0.57642 -4.68941,6.6307 -9.29673,13.45396 -9.50163,14.07155 -9.42054,11.77835 -1.01989,28.844085 5.34841,10.865165 13.6753,22.719955 19.63272,27.950655 z"
     id="path4241"
     inkscape:connector-curvature="0" />
  <path
     style="fill:#ffffff;fill-opacity:1"
     d="m 110.06183,30.47774 2.8125,1.13049 -2.72321,0.0792 c -5.23379,0.15228 -8.61945,-6.20311 -5.15179,-9.67077 2.01378,-2.01379 5.00284,-1.89096 7.94859,0.32662 2.3291,1.75337 2.26349,1.88969 -1.63609,3.39905 -4.77442,1.84798 -5.12541,3.17765 -1.25,4.73538 z"
     id="path4249"
     inkscape:connector-curvature="0" />
  <path
     style="fill:#ffffff;fill-opacity:1"
     d="m 95.99743,23.01666 c -0.6074,0 -1.296,2.39062 -1.53022,5.3125 -0.55016,6.86288 -1.71661,4.15033 -3.48736,-8.1097 -1.39866,-9.68383 -0.97364,-12.74217 1.64931,-11.86786 0.84051,0.28017 1.25687,2.80621 1.04104,6.31599 -0.33682,5.47712 -0.16424,5.84907 2.71393,5.84907 3.35022,0 4.66581,2.75909 4.47018,9.375 l -0.11088,3.75 -0.92258,-3.85911 c -1.10093,-4.60517 -2.32196,-6.76589 -3.82342,-6.76589 z"
     id="path4247"
     inkscape:connector-curvature="0" />
  <path
     style="fill:#ffffff;fill-opacity:1"
     d="m 84.94118,28.01744 c 0.23823,3.43792 -0.003,6.25042 -0.5353,6.25 -1.5844,-10e-4 -3.29633,-5.77731 -2.55383,-8.61663 0.37887,-1.44878 0.11367,-2.63415 -0.58933,-2.63415 -0.82632,0 -0.76738,-1.10131 0.16671,-3.11525 1.63255,-3.51984 2.74252,-3.90164 4.19528,-1.44304 0.54978,0.93044 1.84336,2.01103 2.87461,2.40131 1.21325,0.45917 0.8398,0.7444 -1.05814,0.8083 -2.73382,0.092 -2.90371,0.52345 -2.5,6.34946 z"
     id="path4245"
     inkscape:connector-curvature="0" />
  <path
     style="fill:#ffffff;fill-opacity:1"
     d="m 319.68361,105.82918 c -0.71599,2.57813 -1.75067,4.6875 -2.29931,4.6875 -1.96152,0 -4.91047,-4.45928 -6.19974,-9.37501 -10.46994,-39.919706 -11.82232,-42.437346 -13.09333,-24.375005 -0.31446,4.46875 -1.26811,13.032165 -2.11925,19.029805 -1.25702,8.85796 -1.99752,11.04767 -3.94506,11.6658 -5.06686,1.60815 -9.09801,-7.01436 -5.75459,-12.30891 3.13742,-4.9683 5.18258,-13.876415 4.84268,-21.093275 -0.20385,-4.32827 0.40158,-8.70225 1.55717,-11.250001 1.03988,-2.29263 2.23504,-5.855924 2.6559,-7.918424 1.02163,-5.00662 5.16294,-10.39089 6.73006,-8.75 0.65659,0.6875 2.14738,7.4375 3.31286,15.000004 1.16547,7.562501 2.82508,15.446841 3.688,17.520761 0.86292,2.07392 1.96822,6.433295 2.45622,9.687495 0.488,3.25421 1.39551,5.91674 2.0167,5.91674 1.61944,0 3.71479,-4.33975 3.73249,-7.73032 0.008,-1.59207 1.30206,-5.144725 2.87508,-7.894785 5.147,-8.99835 6.3452,-15.566701 4.17363,-22.879155 -1.70545,-5.74283 -1.70259,-6.90329 0.0279,-11.30868 2.0467,-5.21038 6.45387,-8.51265 9.69899,-7.26739 2.21497,0.84997 2.77446,9.51519 0.74538,11.54427 -0.66767,0.66767 -1.78728,5.25649 -2.48802,10.197384 -0.70075,4.9409 -2.18723,11.397751 -3.30328,14.348561 -4.81313,12.725775 -7.99573,22.753715 -8.00173,25.216245 -0.004,1.45688 -0.59278,4.75827 -1.30875,7.33639 z"
     id="path4243"
     inkscape:connector-curvature="0" />
  <path
     style="fill:#ffffff;fill-opacity:1"
     d="m 216.98663,114.41455 c -4.48745,2.27593 -7.07579,2.51501 -15.6748,1.44789 -4.63026,-0.57461 -4.49149,0.24583 -2.80709,-16.59577 0.65322,-6.53126 1.22181,-22.965525 1.26351,-36.520606 0.0628,-20.408694 0.40538,-24.975134 1.99274,-26.562504 2.63081,-2.6308 6.25306,-2.40218 9.23834,0.5831 2.93008,2.93008 3.11826,4.78118 0.8295,8.15937 -2.42424,3.57815 -5.89862,23.488875 -9.16849,52.54195 l -0.71201,6.32632 6.088,-0.33687 c 14.88079,-0.82341 19.11734,-1.48198 21.85108,-3.39678 1.60499,-1.12419 3.64883,-2.04398 4.54186,-2.04398 2.33782,0 4.5203,5.53597 3.61091,9.15926 -0.68865,2.74379 -1.6607,3.19498 -8.59615,3.99005 -4.30084,0.49304 -9.90666,1.95489 -12.4574,3.24857 z"
     id="path4239"
     inkscape:connector-curvature="0" />
  <path
     style="fill:#ffffff;fill-opacity:1"
     d="m 169.97698,114.77396 c -3.75823,1.94345 -6.42389,2.1337 -15.07962,1.07621 l -4.22698,-0.51642 0.82709,-10.22103 c 0.4549,-5.62158 1.10161,-23.158555 1.43715,-38.971055 0.52975,-24.965845 0.8853,-28.955665 2.70129,-30.312505 2.99712,-2.23934 5.74292,-1.93432 8.87772,0.98619 3.1788,2.96151 3.39581,4.70084 1.01194,8.11068 -2.1375,3.05743 -3.7198,10.94266 -7.01638,34.965635 -1.41515,10.312495 -2.76203,20.015635 -2.99308,21.562505 -0.37789,2.52994 0.0962,2.81107 4.71906,2.80307 8.17319,-0.015 20.71951,-2.40368 24.03473,-4.5759 2.8134,-1.84341 3.23007,-1.82532 5.51145,0.23932 2.53339,2.29269 3.1803,6.28954 1.45702,9.00204 -0.53497,0.84206 -4.6706,2.05471 -9.19028,2.69478 -4.51969,0.64007 -9.95169,2.06048 -12.07111,3.15648 z"
     id="path4237"
     inkscape:connector-curvature="0" />
  <path
     style="fill:#ffffff;fill-opacity:1"
     d="m 261.96658,107.70418 c -2.09241,16.01608 -4.71725,15.39687 -4.71725,-1.11279 0,-14.22443 -2.29289,-26.230905 -5.7004,-29.849505 -2.02572,-2.15123 -2.73755,-4.0235 -2.24532,-5.90577 0.54741,-2.09331 -1.1157,-5.05655 -6.91679,-12.323925 -8.58069,-10.74955 -9.61283,-14.80638 -4.28265,-16.83292 2.36261,-0.89826 4.38371,-0.84933 6.83356,0.16543 4.80362,1.98972 6.21647,4.02329 7.47479,10.75873 1.54509,8.270434 6.77822,19.163235 9.20643,19.163235 2.10864,0 5.69487,-7.06227 6.37719,-12.558461 0.56199,-4.526894 6.33319,-14.394774 11.74743,-20.086304 7.38771,-7.76611 10.64396,-6.01645 3.64283,1.95739 -4.72431,5.3807 -8.63707,15.28139 -8.63707,21.854874 0,3.479831 -0.96576,6.038431 -3.34778,8.869301 -3.71385,4.41365 -6.91043,16.576885 -9.43497,35.900715 z"
     id="path4235"
     inkscape:connector-curvature="0" />
</svg>
